<?xml version='1.0' encoding='utf-8'?>
<svg xmlns:xlink="http://www.w3.org/1999/xlink" class="pygal-chart" id="chart-dc94ae38-ae94-4bd8-bb67-7a3a9eafa9b8" viewBox="0 0 800 600" xmlns="http://www.w3.org/2000/svg"><!--Generated with pygal 2.4.0 (etree) ©Kozea 2012-2016 on 2018-12-17--><!--http://pygal.org--><!--http://github.com/Kozea/pygal--><defs><path d="M95.000000 11.161200 A31.438800 31.438800 0 1 1 94.999686 11.161200" id="valuePath-95.042.6" /><path d="M285.000000 11.161200 A31.438800 31.438800 0 1 1 284.999686 11.161200" id="valuePath-285.042.6" /><path d="M475.000000 11.161200 A31.438800 31.438800 0 1 1 474.999686 11.161200" id="valuePath-475.042.6" /><path d="M665.000000 11.161200 A31.438800 31.438800 0 1 1 664.999686 11.161200" id="valuePath-665.042.6" /><path d="M95.000000 96.361200 A31.438800 31.438800 0 1 1 94.999686 96.361200" id="valuePath-95.0127.80000000000001" /><path d="M285.000000 96.361200 A31.438800 31.438800 0 1 1 284.999686 96.361200" id="valuePath-285.0127.80000000000001" /><path d="M475.000000 96.361200 A31.438800 31.438800 0 1 1 474.999686 96.361200" id="valuePath-475.0127.80000000000001" /><path d="M665.000000 96.361200 A31.438800 31.438800 0 1 1 664.999686 96.361200" id="valuePath-665.0127.80000000000001" /><path d="M95.000000 181.561200 A31.438800 31.438800 0 1 1 94.999686 181.561200" id="valuePath-95.0213.00000000000003" /><path d="M285.000000 181.561200 A31.438800 31.438800 0 1 1 284.999686 181.561200" id="valuePath-285.0213.00000000000003" /><path d="M475.000000 181.561200 A31.438800 31.438800 0 1 1 474.999686 181.561200" id="valuePath-475.0213.00000000000003" /><path d="M665.000000 181.561200 A31.438800 31.438800 0 1 1 664.999686 181.561200" id="valuePath-665.0213.00000000000003" /><path d="M95.000000 266.761200 A31.438800 31.438800 0 1 1 94.999686 266.761200" id="valuePath-95.0298.2" /><path d="M285.000000 266.761200 A31.438800 31.438800 0 1 1 284.999686 266.761200" id="valuePath-285.0298.2" /><path d="M475.000000 266.761200 A31.438800 31.438800 0 1 1 474.999686 266.761200" id="valuePath-475.0298.2" /><path d="M665.000000 266.761200 A31.438800 31.438800 0 1 1 664.999686 266.761200" id="valuePath-665.0298.2" /><path d="M95.000000 351.961200 A31.438800 31.438800 0 1 1 94.999686 351.961200" id="valuePath-95.0383.4" /><path d="M285.000000 351.961200 A31.438800 31.438800 0 1 1 284.999686 351.961200" id="valuePath-285.0383.4" /><path d="M475.000000 351.961200 A31.438800 31.438800 0 1 1 474.999686 351.961200" id="valuePath-475.0383.4" /><path d="M665.000000 351.961200 A31.438800 31.438800 0 1 1 664.999686 351.961200" id="valuePath-665.0383.4" /><style type="text/css">#chart-dc94ae38-ae94-4bd8-bb67-7a3a9eafa9b8{-webkit-user-select:none;-webkit-font-smoothing:antialiased;font-family:Consolas,"Liberation Mono",Menlo,Courier,monospace}#chart-dc94ae38-ae94-4bd8-bb67-7a3a9eafa9b8 .title{font-family:Consolas,"Liberation Mono",Menlo,Courier,monospace;font-size:16px}#chart-dc94ae38-ae94-4bd8-bb67-7a3a9eafa9b8 .legends .legend text{font-family:Consolas,"Liberation Mono",Menlo,Courier,monospace;font-size:14px}#chart-dc94ae38-ae94-4bd8-bb67-7a3a9eafa9b8 .axis text{font-family:Consolas,"Liberation Mono",Menlo,Courier,monospace;font-size:10px}#chart-dc94ae38-ae94-4bd8-bb67-7a3a9eafa9b8 .axis text.major{font-family:Consolas,"Liberation Mono",Menlo,Courier,monospace;font-size:10px}#chart-dc94ae38-ae94-4bd8-bb67-7a3a9eafa9b8 .text-overlay text.value{font-family:Consolas,"Liberation Mono",Menlo,Courier,monospace;font-size:16px}#chart-dc94ae38-ae94-4bd8-bb67-7a3a9eafa9b8 .text-overlay text.label{font-family:Consolas,"Liberation Mono",Menlo,Courier,monospace;font-size:10px}#chart-dc94ae38-ae94-4bd8-bb67-7a3a9eafa9b8 .tooltip{font-family:Consolas,"Liberation Mono",Menlo,Courier,monospace;font-size:14px}#chart-dc94ae38-ae94-4bd8-bb67-7a3a9eafa9b8 text.no_data{font-family:Consolas,"Liberation Mono",Menlo,Courier,monospace;font-size:64px}
#chart-dc94ae38-ae94-4bd8-bb67-7a3a9eafa9b8{background-color:#f9f9fa}#chart-dc94ae38-ae94-4bd8-bb67-7a3a9eafa9b8 path,#chart-dc94ae38-ae94-4bd8-bb67-7a3a9eafa9b8 line,#chart-dc94ae38-ae94-4bd8-bb67-7a3a9eafa9b8 rect,#chart-dc94ae38-ae94-4bd8-bb67-7a3a9eafa9b8 circle{-webkit-transition:150ms;-moz-transition:150ms;transition:150ms}#chart-dc94ae38-ae94-4bd8-bb67-7a3a9eafa9b8 .graph &gt; .background{fill:#f9f9fa}#chart-dc94ae38-ae94-4bd8-bb67-7a3a9eafa9b8 .plot &gt; .background{fill:#ffffff}#chart-dc94ae38-ae94-4bd8-bb67-7a3a9eafa9b8 .graph{fill:rgba(0,0,0,0.9)}#chart-dc94ae38-ae94-4bd8-bb67-7a3a9eafa9b8 text.no_data{fill:rgba(0,0,0,0.9)}#chart-dc94ae38-ae94-4bd8-bb67-7a3a9eafa9b8 .title{fill:rgba(0,0,0,0.9)}#chart-dc94ae38-ae94-4bd8-bb67-7a3a9eafa9b8 .legends .legend text{fill:rgba(0,0,0,0.9)}#chart-dc94ae38-ae94-4bd8-bb67-7a3a9eafa9b8 .legends .legend:hover text{fill:rgba(0,0,0,0.9)}#chart-dc94ae38-ae94-4bd8-bb67-7a3a9eafa9b8 .axis .line{stroke:rgba(0,0,0,0.9)}#chart-dc94ae38-ae94-4bd8-bb67-7a3a9eafa9b8 .axis .guide.line{stroke:rgba(0,0,0,0.5)}#chart-dc94ae38-ae94-4bd8-bb67-7a3a9eafa9b8 .axis .major.line{stroke:rgba(0,0,0,0.9)}#chart-dc94ae38-ae94-4bd8-bb67-7a3a9eafa9b8 .axis text.major{fill:rgba(0,0,0,0.9)}#chart-dc94ae38-ae94-4bd8-bb67-7a3a9eafa9b8 .axis.y .guides:hover .guide.line,#chart-dc94ae38-ae94-4bd8-bb67-7a3a9eafa9b8 .line-graph .axis.x .guides:hover .guide.line,#chart-dc94ae38-ae94-4bd8-bb67-7a3a9eafa9b8 .stackedline-graph .axis.x .guides:hover .guide.line,#chart-dc94ae38-ae94-4bd8-bb67-7a3a9eafa9b8 .xy-graph .axis.x .guides:hover .guide.line{stroke:rgba(0,0,0,0.9)}#chart-dc94ae38-ae94-4bd8-bb67-7a3a9eafa9b8 .axis .guides:hover text{fill:rgba(0,0,0,0.9)}#chart-dc94ae38-ae94-4bd8-bb67-7a3a9eafa9b8 .reactive{fill-opacity:.6;stroke-opacity:.8}#chart-dc94ae38-ae94-4bd8-bb67-7a3a9eafa9b8 .ci{stroke:rgba(0,0,0,0.9)}#chart-dc94ae38-ae94-4bd8-bb67-7a3a9eafa9b8 .reactive.active,#chart-dc94ae38-ae94-4bd8-bb67-7a3a9eafa9b8 .active .reactive{fill-opacity:.9;stroke-opacity:.9;stroke-width:4}#chart-dc94ae38-ae94-4bd8-bb67-7a3a9eafa9b8 .ci .reactive.active{stroke-width:1.5}#chart-dc94ae38-ae94-4bd8-bb67-7a3a9eafa9b8 .series text{fill:rgba(0,0,0,0.9)}#chart-dc94ae38-ae94-4bd8-bb67-7a3a9eafa9b8 .tooltip rect{fill:#ffffff;stroke:rgba(0,0,0,0.9);-webkit-transition:opacity 150ms;-moz-transition:opacity 150ms;transition:opacity 150ms}#chart-dc94ae38-ae94-4bd8-bb67-7a3a9eafa9b8 .tooltip .label{fill:rgba(0,0,0,0.9)}#chart-dc94ae38-ae94-4bd8-bb67-7a3a9eafa9b8 .tooltip .label{fill:rgba(0,0,0,0.9)}#chart-dc94ae38-ae94-4bd8-bb67-7a3a9eafa9b8 .tooltip .legend{font-size:.8em;fill:rgba(0,0,0,0.5)}#chart-dc94ae38-ae94-4bd8-bb67-7a3a9eafa9b8 .tooltip .x_label{font-size:.6em;fill:rgba(0,0,0,0.9)}#chart-dc94ae38-ae94-4bd8-bb67-7a3a9eafa9b8 .tooltip .xlink{font-size:.5em;text-decoration:underline}#chart-dc94ae38-ae94-4bd8-bb67-7a3a9eafa9b8 .tooltip .value{font-size:1.5em}#chart-dc94ae38-ae94-4bd8-bb67-7a3a9eafa9b8 .bound{font-size:.5em}#chart-dc94ae38-ae94-4bd8-bb67-7a3a9eafa9b8 .max-value{font-size:.75em;fill:rgba(0,0,0,0.5)}#chart-dc94ae38-ae94-4bd8-bb67-7a3a9eafa9b8 .map-element{fill:#ffffff;stroke:rgba(0,0,0,0.5) !important}#chart-dc94ae38-ae94-4bd8-bb67-7a3a9eafa9b8 .map-element .reactive{fill-opacity:inherit;stroke-opacity:inherit}#chart-dc94ae38-ae94-4bd8-bb67-7a3a9eafa9b8 .color-0,#chart-dc94ae38-ae94-4bd8-bb67-7a3a9eafa9b8 .color-0 a:visited{stroke:#d94e4c;fill:#d94e4c}#chart-dc94ae38-ae94-4bd8-bb67-7a3a9eafa9b8 .color-1,#chart-dc94ae38-ae94-4bd8-bb67-7a3a9eafa9b8 .color-1 a:visited{stroke:#e5884f;fill:#e5884f}#chart-dc94ae38-ae94-4bd8-bb67-7a3a9eafa9b8 .color-2,#chart-dc94ae38-ae94-4bd8-bb67-7a3a9eafa9b8 .color-2 a:visited{stroke:#39929a;fill:#39929a}#chart-dc94ae38-ae94-4bd8-bb67-7a3a9eafa9b8 .color-3,#chart-dc94ae38-ae94-4bd8-bb67-7a3a9eafa9b8 .color-3 a:visited{stroke:#e27876;fill:#e27876}#chart-dc94ae38-ae94-4bd8-bb67-7a3a9eafa9b8 .color-4,#chart-dc94ae38-ae94-4bd8-bb67-7a3a9eafa9b8 .color-4 a:visited{stroke:#245d62;fill:#245d62}#chart-dc94ae38-ae94-4bd8-bb67-7a3a9eafa9b8 .color-5,#chart-dc94ae38-ae94-4bd8-bb67-7a3a9eafa9b8 .color-5 a:visited{stroke:#f0bb9b;fill:#f0bb9b}#chart-dc94ae38-ae94-4bd8-bb67-7a3a9eafa9b8 .color-6,#chart-dc94ae38-ae94-4bd8-bb67-7a3a9eafa9b8 .color-6 a:visited{stroke:#c82d2a;fill:#c82d2a}#chart-dc94ae38-ae94-4bd8-bb67-7a3a9eafa9b8 .color-7,#chart-dc94ae38-ae94-4bd8-bb67-7a3a9eafa9b8 .color-7 a:visited{stroke:#234547;fill:#234547}#chart-dc94ae38-ae94-4bd8-bb67-7a3a9eafa9b8 .color-8,#chart-dc94ae38-ae94-4bd8-bb67-7a3a9eafa9b8 .color-8 a:visited{stroke:#ac2625;fill:#ac2625}#chart-dc94ae38-ae94-4bd8-bb67-7a3a9eafa9b8 .color-9,#chart-dc94ae38-ae94-4bd8-bb67-7a3a9eafa9b8 .color-9 a:visited{stroke:#c35c1d;fill:#c35c1d}#chart-dc94ae38-ae94-4bd8-bb67-7a3a9eafa9b8 .color-10,#chart-dc94ae38-ae94-4bd8-bb67-7a3a9eafa9b8 .color-10 a:visited{stroke:#22585d;fill:#22585d}#chart-dc94ae38-ae94-4bd8-bb67-7a3a9eafa9b8 .color-11,#chart-dc94ae38-ae94-4bd8-bb67-7a3a9eafa9b8 .color-11 a:visited{stroke:#d33431;fill:#d33431}#chart-dc94ae38-ae94-4bd8-bb67-7a3a9eafa9b8 .color-12,#chart-dc94ae38-ae94-4bd8-bb67-7a3a9eafa9b8 .color-12 a:visited{stroke:#0d2324;fill:#0d2324}#chart-dc94ae38-ae94-4bd8-bb67-7a3a9eafa9b8 .color-13,#chart-dc94ae38-ae94-4bd8-bb67-7a3a9eafa9b8 .color-13 a:visited{stroke:#e58952;fill:#e58952}#chart-dc94ae38-ae94-4bd8-bb67-7a3a9eafa9b8 .color-14,#chart-dc94ae38-ae94-4bd8-bb67-7a3a9eafa9b8 .color-14 a:visited{stroke:#821d1b;fill:#821d1b}#chart-dc94ae38-ae94-4bd8-bb67-7a3a9eafa9b8 .color-15,#chart-dc94ae38-ae94-4bd8-bb67-7a3a9eafa9b8 .color-15 a:visited{stroke:#070e0f;fill:#070e0f}#chart-dc94ae38-ae94-4bd8-bb67-7a3a9eafa9b8 .color-16,#chart-dc94ae38-ae94-4bd8-bb67-7a3a9eafa9b8 .color-16 a:visited{stroke:#671716;fill:#671716}#chart-dc94ae38-ae94-4bd8-bb67-7a3a9eafa9b8 .color-17,#chart-dc94ae38-ae94-4bd8-bb67-7a3a9eafa9b8 .color-17 a:visited{stroke:#7a3912;fill:#7a3912}#chart-dc94ae38-ae94-4bd8-bb67-7a3a9eafa9b8 .color-18,#chart-dc94ae38-ae94-4bd8-bb67-7a3a9eafa9b8 .color-18 a:visited{stroke:#0c1e1f;fill:#0c1e1f}#chart-dc94ae38-ae94-4bd8-bb67-7a3a9eafa9b8 .color-19,#chart-dc94ae38-ae94-4bd8-bb67-7a3a9eafa9b8 .color-19 a:visited{stroke:#91211f;fill:#91211f}#chart-dc94ae38-ae94-4bd8-bb67-7a3a9eafa9b8 .text-overlay .color-0 text{fill:black}#chart-dc94ae38-ae94-4bd8-bb67-7a3a9eafa9b8 .text-overlay .color-1 text{fill:black}#chart-dc94ae38-ae94-4bd8-bb67-7a3a9eafa9b8 .text-overlay .color-2 text{fill:black}#chart-dc94ae38-ae94-4bd8-bb67-7a3a9eafa9b8 .text-overlay .color-3 text{fill:black}#chart-dc94ae38-ae94-4bd8-bb67-7a3a9eafa9b8 .text-overlay .color-4 text{fill:black}#chart-dc94ae38-ae94-4bd8-bb67-7a3a9eafa9b8 .text-overlay .color-5 text{fill:black}#chart-dc94ae38-ae94-4bd8-bb67-7a3a9eafa9b8 .text-overlay .color-6 text{fill:black}#chart-dc94ae38-ae94-4bd8-bb67-7a3a9eafa9b8 .text-overlay .color-7 text{fill:black}#chart-dc94ae38-ae94-4bd8-bb67-7a3a9eafa9b8 .text-overlay .color-8 text{fill:black}#chart-dc94ae38-ae94-4bd8-bb67-7a3a9eafa9b8 .text-overlay .color-9 text{fill:black}#chart-dc94ae38-ae94-4bd8-bb67-7a3a9eafa9b8 .text-overlay .color-10 text{fill:black}#chart-dc94ae38-ae94-4bd8-bb67-7a3a9eafa9b8 .text-overlay .color-11 text{fill:black}#chart-dc94ae38-ae94-4bd8-bb67-7a3a9eafa9b8 .text-overlay .color-12 text{fill:white}#chart-dc94ae38-ae94-4bd8-bb67-7a3a9eafa9b8 .text-overlay .color-13 text{fill:black}#chart-dc94ae38-ae94-4bd8-bb67-7a3a9eafa9b8 .text-overlay .color-14 text{fill:black}#chart-dc94ae38-ae94-4bd8-bb67-7a3a9eafa9b8 .text-overlay .color-15 text{fill:white}#chart-dc94ae38-ae94-4bd8-bb67-7a3a9eafa9b8 .text-overlay .color-16 text{fill:black}#chart-dc94ae38-ae94-4bd8-bb67-7a3a9eafa9b8 .text-overlay .color-17 text{fill:black}#chart-dc94ae38-ae94-4bd8-bb67-7a3a9eafa9b8 .text-overlay .color-18 text{fill:white}#chart-dc94ae38-ae94-4bd8-bb67-7a3a9eafa9b8 .text-overlay .color-19 text{fill:black}
#chart-dc94ae38-ae94-4bd8-bb67-7a3a9eafa9b8 text.no_data{text-anchor:middle}#chart-dc94ae38-ae94-4bd8-bb67-7a3a9eafa9b8 .guide.line{fill:none}#chart-dc94ae38-ae94-4bd8-bb67-7a3a9eafa9b8 .centered{text-anchor:middle}#chart-dc94ae38-ae94-4bd8-bb67-7a3a9eafa9b8 .title{text-anchor:middle}#chart-dc94ae38-ae94-4bd8-bb67-7a3a9eafa9b8 .legends .legend text{fill-opacity:1}#chart-dc94ae38-ae94-4bd8-bb67-7a3a9eafa9b8 .axis.x text{text-anchor:middle}#chart-dc94ae38-ae94-4bd8-bb67-7a3a9eafa9b8 .axis.x:not(.web) text[transform]{text-anchor:start}#chart-dc94ae38-ae94-4bd8-bb67-7a3a9eafa9b8 .axis.x:not(.web) text[transform].backwards{text-anchor:end}#chart-dc94ae38-ae94-4bd8-bb67-7a3a9eafa9b8 .axis.y text{text-anchor:end}#chart-dc94ae38-ae94-4bd8-bb67-7a3a9eafa9b8 .axis.y text[transform].backwards{text-anchor:start}#chart-dc94ae38-ae94-4bd8-bb67-7a3a9eafa9b8 .axis.y2 text{text-anchor:start}#chart-dc94ae38-ae94-4bd8-bb67-7a3a9eafa9b8 .axis.y2 text[transform].backwards{text-anchor:end}#chart-dc94ae38-ae94-4bd8-bb67-7a3a9eafa9b8 .axis .guide.line{stroke-dasharray:4,4}#chart-dc94ae38-ae94-4bd8-bb67-7a3a9eafa9b8 .axis .major.guide.line{stroke-dasharray:6,6}#chart-dc94ae38-ae94-4bd8-bb67-7a3a9eafa9b8 .horizontal .axis.y .guide.line,#chart-dc94ae38-ae94-4bd8-bb67-7a3a9eafa9b8 .horizontal .axis.y2 .guide.line,#chart-dc94ae38-ae94-4bd8-bb67-7a3a9eafa9b8 .vertical .axis.x .guide.line{opacity:0}#chart-dc94ae38-ae94-4bd8-bb67-7a3a9eafa9b8 .horizontal .axis.always_show .guide.line,#chart-dc94ae38-ae94-4bd8-bb67-7a3a9eafa9b8 .vertical .axis.always_show .guide.line{opacity:1 !important}#chart-dc94ae38-ae94-4bd8-bb67-7a3a9eafa9b8 .axis.y .guides:hover .guide.line,#chart-dc94ae38-ae94-4bd8-bb67-7a3a9eafa9b8 .axis.y2 .guides:hover .guide.line,#chart-dc94ae38-ae94-4bd8-bb67-7a3a9eafa9b8 .axis.x .guides:hover .guide.line{opacity:1}#chart-dc94ae38-ae94-4bd8-bb67-7a3a9eafa9b8 .axis .guides:hover text{opacity:1}#chart-dc94ae38-ae94-4bd8-bb67-7a3a9eafa9b8 .nofill{fill:none}#chart-dc94ae38-ae94-4bd8-bb67-7a3a9eafa9b8 .subtle-fill{fill-opacity:.2}#chart-dc94ae38-ae94-4bd8-bb67-7a3a9eafa9b8 .dot{stroke-width:1px;fill-opacity:1}#chart-dc94ae38-ae94-4bd8-bb67-7a3a9eafa9b8 .dot.active{stroke-width:5px}#chart-dc94ae38-ae94-4bd8-bb67-7a3a9eafa9b8 .dot.negative{fill:transparent}#chart-dc94ae38-ae94-4bd8-bb67-7a3a9eafa9b8 text,#chart-dc94ae38-ae94-4bd8-bb67-7a3a9eafa9b8 tspan{stroke:none !important}#chart-dc94ae38-ae94-4bd8-bb67-7a3a9eafa9b8 .series text.active{opacity:1}#chart-dc94ae38-ae94-4bd8-bb67-7a3a9eafa9b8 .tooltip rect{fill-opacity:.95;stroke-width:.5}#chart-dc94ae38-ae94-4bd8-bb67-7a3a9eafa9b8 .tooltip text{fill-opacity:1}#chart-dc94ae38-ae94-4bd8-bb67-7a3a9eafa9b8 .showable{visibility:hidden}#chart-dc94ae38-ae94-4bd8-bb67-7a3a9eafa9b8 .showable.shown{visibility:visible}#chart-dc94ae38-ae94-4bd8-bb67-7a3a9eafa9b8 .gauge-background{fill:rgba(229,229,229,1);stroke:none}#chart-dc94ae38-ae94-4bd8-bb67-7a3a9eafa9b8 .bg-lines{stroke:#f9f9fa;stroke-width:2px}</style><script type="text/javascript">window.pygal = window.pygal || {};window.pygal.config = window.pygal.config || {};window.pygal.config['dc94ae38-ae94-4bd8-bb67-7a3a9eafa9b8'] = {"allow_interruptions": false, "box_mode": "extremes", "classes": ["pygal-chart"], "css": ["file://style.css", "file://graph.css"], "defs": [], "disable_xml_declaration": false, "dots_size": 2.5, "dynamic_print_values": false, "explicit_size": false, "fill": false, "force_uri_protocol": "https", "formatter": null, "half_pie": false, "height": 600, "include_x_axis": false, "inner_radius": 0.7, "interpolate": null, "interpolation_parameters": {}, "interpolation_precision": 250, "inverse_y_axis": false, "js": ["//kozea.github.io/pygal.js/2.0.x/pygal-tooltips.min.js"], "legend_at_bottom": true, "legend_at_bottom_columns": null, "legend_box_size": 12, "logarithmic": false, "margin": 20, "margin_bottom": null, "margin_left": null, "margin_right": null, "margin_top": null, "max_scale": 16, "min_scale": 4, "missing_value_fill_truncation": "x", "no_data_text": "No data", "no_prefix": false, "order_min": null, "pretty_print": false, "print_labels": false, "print_values": false, "print_values_position": "center", "print_zeroes": true, "range": null, "rounded_bars": null, "secondary_range": null, "show_dots": true, "show_legend": true, "show_minor_x_labels": true, "show_minor_y_labels": true, "show_only_major_dots": false, "show_x_guides": false, "show_x_labels": true, "show_y_guides": true, "show_y_labels": true, "spacing": 10, "stack_from_top": false, "strict": false, "stroke": true, "stroke_style": null, "style": {"background": "#f9f9fa", "ci_colors": [], "colors": ["#d94e4c", "#e5884f", "#39929a", "#e27876", "#245d62", "#f0bb9b", "#c82d2a", "#234547"], "font_family": "Consolas, \"Liberation Mono\", Menlo, Courier, monospace", "foreground": "rgba(0, 0, 0, 0.9)", "foreground_strong": "rgba(0, 0, 0, 0.9)", "foreground_subtle": "rgba(0, 0, 0, 0.5)", "guide_stroke_dasharray": "4,4", "label_font_family": "Consolas, \"Liberation Mono\", Menlo, Courier, monospace", "label_font_size": 10, "legend_font_family": "Consolas, \"Liberation Mono\", Menlo, Courier, monospace", "legend_font_size": 14, "major_guide_stroke_dasharray": "6,6", "major_label_font_family": "Consolas, \"Liberation Mono\", Menlo, Courier, monospace", "major_label_font_size": 10, "no_data_font_family": "Consolas, \"Liberation Mono\", Menlo, Courier, monospace", "no_data_font_size": 64, "opacity": ".6", "opacity_hover": ".9", "plot_background": "#ffffff", "stroke_opacity": ".8", "stroke_opacity_hover": ".9", "title_font_family": "Consolas, \"Liberation Mono\", Menlo, Courier, monospace", "title_font_size": 16, "tooltip_font_family": "Consolas, \"Liberation Mono\", Menlo, Courier, monospace", "tooltip_font_size": 14, "transition": "150ms", "value_background": "rgba(229, 229, 229, 1)", "value_colors": [], "value_font_family": "Consolas, \"Liberation Mono\", Menlo, Courier, monospace", "value_font_size": 16, "value_label_font_family": "Consolas, \"Liberation Mono\", Menlo, Courier, monospace", "value_label_font_size": 10}, "title": "The Most Installs Applications on Google Playstore", "tooltip_border_radius": 0, "tooltip_fancy_mode": true, "truncate_label": null, "truncate_legend": null, "width": 800, "x_label_rotation": 0, "x_labels": null, "x_labels_major": null, "x_labels_major_count": null, "x_labels_major_every": null, "x_title": null, "xrange": null, "y_label_rotation": 0, "y_labels": null, "y_labels_major": null, "y_labels_major_count": null, "y_labels_major_every": null, "y_title": null, "zero": 0, "legends": ["Google Play Books", "Messenger   Text and Video Chat for Free", "WhatsApp Messenger", "Google Chrome: Fast &amp; Secure", "Gmail", "Hangouts", "Skype - free IM &amp; video calls", "Google Play Games", "Subway Surfers", "Facebook", "Instagram", "Google+", "Google Photos", "Maps - Navigate &amp; Explore", "Google Street View", "Google", "Google Drive", "YouTube", "Google Play Movies &amp; TV", "Google News"]}</script><script type="text/javascript" xlink:href="https://kozea.github.io/pygal.js/2.0.x/pygal-tooltips.min.js" /></defs><title>The Most Installs Applications on Google Playstore</title><g class="graph solidgauge-graph vertical"><rect class="background" height="600" width="800" x="0" y="0" /><g class="plot" transform="translate(20, 46)"><rect class="background" height="426.0" width="760" x="0" y="0" /><path class="bg-lines" d="M190.0 0 L190.0 426.0" /><path class="bg-lines" d="M380.0 0 L380.0 426.0" /><path class="bg-lines" d="M570.0 0 L570.0 426.0" /><path class="bg-lines" d="M0 85.2 L760 85.2" /><path class="bg-lines" d="M0 170.4 L760 170.4" /><path class="bg-lines" d="M0 255.60000000000002 L760 255.60000000000002" /><path class="bg-lines" d="M0 340.8 L760 340.8" /><g class="series serie-0 color-0"><path class="gauge-background reactive" d="M95.000000 4.260000 A38.340000 38.340000 0 1 1 94.999617 4.260000 L94.999732 15.762000 A26.838000 26.838000 0 1 0 95.000000 15.762000 z" /><g class="gauge"><path class="slice reactive tooltip-trigger" d="M95.000000 4.260000 A38.340000 38.340000 0 1 1 94.999617 4.260000 L94.999732 15.762000 A26.838000 26.838000 0 1 0 95.000000 15.762000 z" /><desc class="value">100%</desc><desc class="x centered">95.000162945</desc><desc class="y centered">75.18899999959264</desc></g></g><g class="series serie-1 color-1"><path class="gauge-background reactive" d="M285.000000 4.260000 A38.340000 38.340000 0 1 1 284.999617 4.260000 L284.999732 15.762000 A26.838000 26.838000 0 1 0 285.000000 15.762000 z" /><g class="gauge"><path class="slice reactive tooltip-trigger" d="M285.000000 4.260000 A38.340000 38.340000 0 1 1 284.999617 4.260000 L284.999732 15.762000 A26.838000 26.838000 0 1 0 285.000000 15.762000 z" /><desc class="value">100%</desc><desc class="x centered">285.000162945</desc><desc class="y centered">75.18899999959264</desc></g></g><g class="series serie-2 color-2"><path class="gauge-background reactive" d="M475.000000 4.260000 A38.340000 38.340000 0 1 1 474.999617 4.260000 L474.999732 15.762000 A26.838000 26.838000 0 1 0 475.000000 15.762000 z" /><g class="gauge"><path class="slice reactive tooltip-trigger" d="M475.000000 4.260000 A38.340000 38.340000 0 1 1 474.999617 4.260000 L474.999732 15.762000 A26.838000 26.838000 0 1 0 475.000000 15.762000 z" /><desc class="value">100%</desc><desc class="x centered">475.000162945</desc><desc class="y centered">75.18899999959264</desc></g></g><g class="series serie-3 color-3"><path class="gauge-background reactive" d="M665.000000 4.260000 A38.340000 38.340000 0 1 1 664.999617 4.260000 L664.999732 15.762000 A26.838000 26.838000 0 1 0 665.000000 15.762000 z" /><g class="gauge"><path class="slice reactive tooltip-trigger" d="M665.000000 4.260000 A38.340000 38.340000 0 1 1 664.999617 4.260000 L664.999732 15.762000 A26.838000 26.838000 0 1 0 665.000000 15.762000 z" /><desc class="value">100%</desc><desc class="x centered">665.0001629449999</desc><desc class="y centered">75.18899999959264</desc></g></g><g class="series serie-4 color-4"><path class="gauge-background reactive" d="M95.000000 89.460000 A38.340000 38.340000 0 1 1 94.999617 89.460000 L94.999732 100.962000 A26.838000 26.838000 0 1 0 95.000000 100.962000 z" /><g class="gauge"><path class="slice reactive tooltip-trigger" d="M95.000000 89.460000 A38.340000 38.340000 0 1 1 94.999617 89.460000 L94.999732 100.962000 A26.838000 26.838000 0 1 0 95.000000 100.962000 z" /><desc class="value">100%</desc><desc class="x centered">95.000162945</desc><desc class="y centered">160.38899999959264</desc></g></g><g class="series serie-5 color-5"><path class="gauge-background reactive" d="M285.000000 89.460000 A38.340000 38.340000 0 1 1 284.999617 89.460000 L284.999732 100.962000 A26.838000 26.838000 0 1 0 285.000000 100.962000 z" /><g class="gauge"><path class="slice reactive tooltip-trigger" d="M285.000000 89.460000 A38.340000 38.340000 0 1 1 284.999617 89.460000 L284.999732 100.962000 A26.838000 26.838000 0 1 0 285.000000 100.962000 z" /><desc class="value">100%</desc><desc class="x centered">285.000162945</desc><desc class="y centered">160.38899999959264</desc></g></g><g class="series serie-6 color-6"><path class="gauge-background reactive" d="M475.000000 89.460000 A38.340000 38.340000 0 1 1 474.999617 89.460000 L474.999732 100.962000 A26.838000 26.838000 0 1 0 475.000000 100.962000 z" /><g class="gauge"><path class="slice reactive tooltip-trigger" d="M475.000000 89.460000 A38.340000 38.340000 0 1 1 474.999617 89.460000 L474.999732 100.962000 A26.838000 26.838000 0 1 0 475.000000 100.962000 z" /><desc class="value">100%</desc><desc class="x centered">475.000162945</desc><desc class="y centered">160.38899999959264</desc></g></g><g class="series serie-7 color-7"><path class="gauge-background reactive" d="M665.000000 89.460000 A38.340000 38.340000 0 1 1 664.999617 89.460000 L664.999732 100.962000 A26.838000 26.838000 0 1 0 665.000000 100.962000 z" /><g class="gauge"><path class="slice reactive tooltip-trigger" d="M665.000000 89.460000 A38.340000 38.340000 0 1 1 664.999617 89.460000 L664.999732 100.962000 A26.838000 26.838000 0 1 0 665.000000 100.962000 z" /><desc class="value">100%</desc><desc class="x centered">665.0001629449999</desc><desc class="y centered">160.38899999959264</desc></g></g><g class="series serie-8 color-8"><path class="gauge-background reactive" d="M95.000000 174.660000 A38.340000 38.340000 0 1 1 94.999617 174.660000 L94.999732 186.162000 A26.838000 26.838000 0 1 0 95.000000 186.162000 z" /><g class="gauge"><path class="slice reactive tooltip-trigger" d="M95.000000 174.660000 A38.340000 38.340000 0 1 1 94.999617 174.660000 L94.999732 186.162000 A26.838000 26.838000 0 1 0 95.000000 186.162000 z" /><desc class="value">100%</desc><desc class="x centered">95.000162945</desc><desc class="y centered">245.58899999959266</desc></g></g><g class="series serie-9 color-9"><path class="gauge-background reactive" d="M285.000000 174.660000 A38.340000 38.340000 0 1 1 284.999617 174.660000 L284.999732 186.162000 A26.838000 26.838000 0 1 0 285.000000 186.162000 z" /><g class="gauge"><path class="slice reactive tooltip-trigger" d="M285.000000 174.660000 A38.340000 38.340000 0 1 1 284.999617 174.660000 L284.999732 186.162000 A26.838000 26.838000 0 1 0 285.000000 186.162000 z" /><desc class="value">100%</desc><desc class="x centered">285.000162945</desc><desc class="y centered">245.58899999959266</desc></g></g><g class="series serie-10 color-10"><path class="gauge-background reactive" d="M475.000000 174.660000 A38.340000 38.340000 0 1 1 474.999617 174.660000 L474.999732 186.162000 A26.838000 26.838000 0 1 0 475.000000 186.162000 z" /><g class="gauge"><path class="slice reactive tooltip-trigger" d="M475.000000 174.660000 A38.340000 38.340000 0 1 1 474.999617 174.660000 L474.999732 186.162000 A26.838000 26.838000 0 1 0 475.000000 186.162000 z" /><desc class="value">100%</desc><desc class="x centered">475.000162945</desc><desc class="y centered">245.58899999959266</desc></g></g><g class="series serie-11 color-11"><path class="gauge-background reactive" d="M665.000000 174.660000 A38.340000 38.340000 0 1 1 664.999617 174.660000 L664.999732 186.162000 A26.838000 26.838000 0 1 0 665.000000 186.162000 z" /><g class="gauge"><path class="slice reactive tooltip-trigger" d="M665.000000 174.660000 A38.340000 38.340000 0 1 1 664.999617 174.660000 L664.999732 186.162000 A26.838000 26.838000 0 1 0 665.000000 186.162000 z" /><desc class="value">100%</desc><desc class="x centered">665.0001629449999</desc><desc class="y centered">245.58899999959266</desc></g></g><g class="series serie-12 color-12"><path class="gauge-background reactive" d="M95.000000 259.860000 A38.340000 38.340000 0 1 1 94.999617 259.860000 L94.999732 271.362000 A26.838000 26.838000 0 1 0 95.000000 271.362000 z" /><g class="gauge"><path class="slice reactive tooltip-trigger" d="M95.000000 259.860000 A38.340000 38.340000 0 1 1 94.999617 259.860000 L94.999732 271.362000 A26.838000 26.838000 0 1 0 95.000000 271.362000 z" /><desc class="value">100%</desc><desc class="x centered">95.000162945</desc><desc class="y centered">330.78899999959265</desc></g></g><g class="series serie-13 color-13"><path class="gauge-background reactive" d="M285.000000 259.860000 A38.340000 38.340000 0 1 1 284.999617 259.860000 L284.999732 271.362000 A26.838000 26.838000 0 1 0 285.000000 271.362000 z" /><g class="gauge"><path class="slice reactive tooltip-trigger" d="M285.000000 259.860000 A38.340000 38.340000 0 1 1 284.999617 259.860000 L284.999732 271.362000 A26.838000 26.838000 0 1 0 285.000000 271.362000 z" /><desc class="value">100%</desc><desc class="x centered">285.000162945</desc><desc class="y centered">330.78899999959265</desc></g></g><g class="series serie-14 color-14"><path class="gauge-background reactive" d="M475.000000 259.860000 A38.340000 38.340000 0 1 1 474.999617 259.860000 L474.999732 271.362000 A26.838000 26.838000 0 1 0 475.000000 271.362000 z" /><g class="gauge"><path class="slice reactive tooltip-trigger" d="M475.000000 259.860000 A38.340000 38.340000 0 1 1 474.999617 259.860000 L474.999732 271.362000 A26.838000 26.838000 0 1 0 475.000000 271.362000 z" /><desc class="value">100%</desc><desc class="x centered">475.000162945</desc><desc class="y centered">330.78899999959265</desc></g></g><g class="series serie-15 color-15"><path class="gauge-background reactive" d="M665.000000 259.860000 A38.340000 38.340000 0 1 1 664.999617 259.860000 L664.999732 271.362000 A26.838000 26.838000 0 1 0 665.000000 271.362000 z" /><g class="gauge"><path class="slice reactive tooltip-trigger" d="M665.000000 259.860000 A38.340000 38.340000 0 1 1 664.999617 259.860000 L664.999732 271.362000 A26.838000 26.838000 0 1 0 665.000000 271.362000 z" /><desc class="value">100%</desc><desc class="x centered">665.0001629449999</desc><desc class="y centered">330.78899999959265</desc></g></g><g class="series serie-16 color-16"><path class="gauge-background reactive" d="M95.000000 345.060000 A38.340000 38.340000 0 1 1 94.999617 345.060000 L94.999732 356.562000 A26.838000 26.838000 0 1 0 95.000000 356.562000 z" /><g class="gauge"><path class="slice reactive tooltip-trigger" d="M95.000000 345.060000 A38.340000 38.340000 0 1 1 94.999617 345.060000 L94.999732 356.562000 A26.838000 26.838000 0 1 0 95.000000 356.562000 z" /><desc class="value">100%</desc><desc class="x centered">95.000162945</desc><desc class="y centered">415.98899999959264</desc></g></g><g class="series serie-17 color-17"><path class="gauge-background reactive" d="M285.000000 345.060000 A38.340000 38.340000 0 1 1 284.999617 345.060000 L284.999732 356.562000 A26.838000 26.838000 0 1 0 285.000000 356.562000 z" /><g class="gauge"><path class="slice reactive tooltip-trigger" d="M285.000000 345.060000 A38.340000 38.340000 0 1 1 284.999617 345.060000 L284.999732 356.562000 A26.838000 26.838000 0 1 0 285.000000 356.562000 z" /><desc class="value">100%</desc><desc class="x centered">285.000162945</desc><desc class="y centered">415.98899999959264</desc></g></g><g class="series serie-18 color-18"><path class="gauge-background reactive" d="M475.000000 345.060000 A38.340000 38.340000 0 1 1 474.999617 345.060000 L474.999732 356.562000 A26.838000 26.838000 0 1 0 475.000000 356.562000 z" /><g class="gauge"><path class="slice reactive tooltip-trigger" d="M475.000000 345.060000 A38.340000 38.340000 0 1 1 474.999617 345.060000 L474.999732 356.562000 A26.838000 26.838000 0 1 0 475.000000 356.562000 z" /><desc class="value">100%</desc><desc class="x centered">475.000162945</desc><desc class="y centered">415.98899999959264</desc></g></g><g class="series serie-19 color-19"><path class="gauge-background reactive" d="M665.000000 345.060000 A38.340000 38.340000 0 1 1 664.999617 345.060000 L664.999732 356.562000 A26.838000 26.838000 0 1 0 665.000000 356.562000 z" /><g class="gauge"><path class="slice reactive tooltip-trigger" d="M665.000000 345.060000 A38.340000 38.340000 0 1 1 664.999617 345.060000 L664.999732 356.562000 A26.838000 26.838000 0 1 0 665.000000 356.562000 z" /><desc class="value">100%</desc><desc class="x centered">665.0001629449999</desc><desc class="y centered">415.98899999959264</desc></g></g></g><g class="titles"><text class="title plot_title" x="400.0" y="26">The Most Installs Applications on Google Playstore</text></g><g class="plot overlay" transform="translate(20, 46)"><g class="series serie-0 color-0" /><g class="series serie-1 color-1" /><g class="series serie-2 color-2" /><g class="series serie-3 color-3" /><g class="series serie-4 color-4" /><g class="series serie-5 color-5" /><g class="series serie-6 color-6" /><g class="series serie-7 color-7" /><g class="series serie-8 color-8" /><g class="series serie-9 color-9" /><g class="series serie-10 color-10" /><g class="series serie-11 color-11" /><g class="series serie-12 color-12" /><g class="series serie-13 color-13" /><g class="series serie-14 color-14" /><g class="series serie-15 color-15" /><g class="series serie-16 color-16" /><g class="series serie-17 color-17" /><g class="series serie-18 color-18" /><g class="series serie-19 color-19" /></g><g class="plot text-overlay" transform="translate(20, 46)"><g class="series serie-0 color-0"><text><textPath class="max-value reactive" startOffset="99%" text-anchor="end" xlink:href="#valuePath-95.042.6">100%</textPath></text><text class="value gauge-sum" text-anchor="middle" x="95.0" y="47.93333333333334">100%</text></g><g class="series serie-1 color-1"><text><textPath class="max-value reactive" startOffset="99%" text-anchor="end" xlink:href="#valuePath-285.042.6">100%</textPath></text><text class="value gauge-sum" text-anchor="middle" x="285.0" y="47.93333333333334">100%</text></g><g class="series serie-2 color-2"><text><textPath class="max-value reactive" startOffset="99%" text-anchor="end" xlink:href="#valuePath-475.042.6">100%</textPath></text><text class="value gauge-sum" text-anchor="middle" x="475.0" y="47.93333333333334">100%</text></g><g class="series serie-3 color-3"><text><textPath class="max-value reactive" startOffset="99%" text-anchor="end" xlink:href="#valuePath-665.042.6">100%</textPath></text><text class="value gauge-sum" text-anchor="middle" x="665.0" y="47.93333333333334">100%</text></g><g class="series serie-4 color-4"><text><textPath class="max-value reactive" startOffset="99%" text-anchor="end" xlink:href="#valuePath-95.0127.80000000000001">100%</textPath></text><text class="value gauge-sum" text-anchor="middle" x="95.0" y="133.13333333333335">100%</text></g><g class="series serie-5 color-5"><text><textPath class="max-value reactive" startOffset="99%" text-anchor="end" xlink:href="#valuePath-285.0127.80000000000001">100%</textPath></text><text class="value gauge-sum" text-anchor="middle" x="285.0" y="133.13333333333335">100%</text></g><g class="series serie-6 color-6"><text><textPath class="max-value reactive" startOffset="99%" text-anchor="end" xlink:href="#valuePath-475.0127.80000000000001">100%</textPath></text><text class="value gauge-sum" text-anchor="middle" x="475.0" y="133.13333333333335">100%</text></g><g class="series serie-7 color-7"><text><textPath class="max-value reactive" startOffset="99%" text-anchor="end" xlink:href="#valuePath-665.0127.80000000000001">100%</textPath></text><text class="value gauge-sum" text-anchor="middle" x="665.0" y="133.13333333333335">100%</text></g><g class="series serie-8 color-8"><text><textPath class="max-value reactive" startOffset="99%" text-anchor="end" xlink:href="#valuePath-95.0213.00000000000003">100%</textPath></text><text class="value gauge-sum" text-anchor="middle" x="95.0" y="218.33333333333337">100%</text></g><g class="series serie-9 color-9"><text><textPath class="max-value reactive" startOffset="99%" text-anchor="end" xlink:href="#valuePath-285.0213.00000000000003">100%</textPath></text><text class="value gauge-sum" text-anchor="middle" x="285.0" y="218.33333333333337">100%</text></g><g class="series serie-10 color-10"><text><textPath class="max-value reactive" startOffset="99%" text-anchor="end" xlink:href="#valuePath-475.0213.00000000000003">100%</textPath></text><text class="value gauge-sum" text-anchor="middle" x="475.0" y="218.33333333333337">100%</text></g><g class="series serie-11 color-11"><text><textPath class="max-value reactive" startOffset="99%" text-anchor="end" xlink:href="#valuePath-665.0213.00000000000003">100%</textPath></text><text class="value gauge-sum" text-anchor="middle" x="665.0" y="218.33333333333337">100%</text></g><g class="series serie-12 color-12"><text><textPath class="max-value reactive" startOffset="99%" text-anchor="end" xlink:href="#valuePath-95.0298.2">100%</textPath></text><text class="value gauge-sum" text-anchor="middle" x="95.0" y="303.5333333333333">100%</text></g><g class="series serie-13 color-13"><text><textPath class="max-value reactive" startOffset="99%" text-anchor="end" xlink:href="#valuePath-285.0298.2">100%</textPath></text><text class="value gauge-sum" text-anchor="middle" x="285.0" y="303.5333333333333">100%</text></g><g class="series serie-14 color-14"><text><textPath class="max-value reactive" startOffset="99%" text-anchor="end" xlink:href="#valuePath-475.0298.2">100%</textPath></text><text class="value gauge-sum" text-anchor="middle" x="475.0" y="303.5333333333333">100%</text></g><g class="series serie-15 color-15"><text><textPath class="max-value reactive" startOffset="99%" text-anchor="end" xlink:href="#valuePath-665.0298.2">100%</textPath></text><text class="value gauge-sum" text-anchor="middle" x="665.0" y="303.5333333333333">100%</text></g><g class="series serie-16 color-16"><text><textPath class="max-value reactive" startOffset="99%" text-anchor="end" xlink:href="#valuePath-95.0383.4">100%</textPath></text><text class="value gauge-sum" text-anchor="middle" x="95.0" y="388.7333333333333">100%</text></g><g class="series serie-17 color-17"><text><textPath class="max-value reactive" startOffset="99%" text-anchor="end" xlink:href="#valuePath-285.0383.4">100%</textPath></text><text class="value gauge-sum" text-anchor="middle" x="285.0" y="388.7333333333333">100%</text></g><g class="series serie-18 color-18"><text><textPath class="max-value reactive" startOffset="99%" text-anchor="end" xlink:href="#valuePath-475.0383.4">100%</textPath></text><text class="value gauge-sum" text-anchor="middle" x="475.0" y="388.7333333333333">100%</text></g><g class="series serie-19 color-19"><text><textPath class="max-value reactive" startOffset="99%" text-anchor="end" xlink:href="#valuePath-665.0383.4">100%</textPath></text><text class="value gauge-sum" text-anchor="middle" x="665.0" y="388.7333333333333">100%</text></g></g><g class="plot tooltip-overlay" transform="translate(20, 46)"><g class="tooltip" style="opacity: 0" transform="translate(0 0)"><rect class="tooltip-box" height="0" rx="0" ry="0" width="0" /><g class="text" /></g></g><g class="legends" transform="translate(30, 482)"><g class="legend reactive activate-serie" id="activate-serie-0"><rect class="color-0 reactive" height="12" width="12" x="0.0" y="1.0" /><text x="17.0" y="11.2">Google Play Boo…</text><title>Google Play Books</title></g><g class="legend reactive activate-serie" id="activate-serie-1"><rect class="color-1 reactive" height="12" width="12" x="152.0" y="1.0" /><text x="169.0" y="11.2">Messenger   Tex…</text><title>Messenger   Text and Video Chat for Free</title></g><g class="legend reactive activate-serie" id="activate-serie-2"><rect class="color-2 reactive" height="12" width="12" x="304.0" y="1.0" /><text x="321.0" y="11.2">WhatsApp Messen…</text><title>WhatsApp Messenger</title></g><g class="legend reactive activate-serie" id="activate-serie-3"><rect class="color-3 reactive" height="12" width="12" x="456.0" y="1.0" /><text x="473.0" y="11.2">Google Chrome: …</text><title>Google Chrome: Fast &amp; Secure</title></g><g class="legend reactive activate-serie" id="activate-serie-4"><rect class="color-4 reactive" height="12" width="12" x="608.0" y="1.0" /><text x="625.0" y="11.2">Gmail</text></g><g class="legend reactive activate-serie" id="activate-serie-5"><rect class="color-5 reactive" height="12" width="12" x="0.0" y="22.0" /><text x="17.0" y="32.2">Hangouts</text></g><g class="legend reactive activate-serie" id="activate-serie-6"><rect class="color-6 reactive" height="12" width="12" x="152.0" y="22.0" /><text x="169.0" y="32.2">Skype - free IM…</text><title>Skype - free IM &amp; video calls</title></g><g class="legend reactive activate-serie" id="activate-serie-7"><rect class="color-7 reactive" height="12" width="12" x="304.0" y="22.0" /><text x="321.0" y="32.2">Google Play Gam…</text><title>Google Play Games</title></g><g class="legend reactive activate-serie" id="activate-serie-8"><rect class="color-8 reactive" height="12" width="12" x="456.0" y="22.0" /><text x="473.0" y="32.2">Subway Surfers</text></g><g class="legend reactive activate-serie" id="activate-serie-9"><rect class="color-9 reactive" height="12" width="12" x="608.0" y="22.0" /><text x="625.0" y="32.2">Facebook</text></g><g class="legend reactive activate-serie" id="activate-serie-10"><rect class="color-10 reactive" height="12" width="12" x="0.0" y="43.0" /><text x="17.0" y="53.2">Instagram</text></g><g class="legend reactive activate-serie" id="activate-serie-11"><rect class="color-11 reactive" height="12" width="12" x="152.0" y="43.0" /><text x="169.0" y="53.2">Google+</text></g><g class="legend reactive activate-serie" id="activate-serie-12"><rect class="color-12 reactive" height="12" width="12" x="304.0" y="43.0" /><text x="321.0" y="53.2">Google Photos</text></g><g class="legend reactive activate-serie" id="activate-serie-13"><rect class="color-13 reactive" height="12" width="12" x="456.0" y="43.0" /><text x="473.0" y="53.2">Maps - Navigate…</text><title>Maps - Navigate &amp; Explore</title></g><g class="legend reactive activate-serie" id="activate-serie-14"><rect class="color-14 reactive" height="12" width="12" x="608.0" y="43.0" /><text x="625.0" y="53.2">Google Street V…</text><title>Google Street View</title></g><g class="legend reactive activate-serie" id="activate-serie-15"><rect class="color-15 reactive" height="12" width="12" x="0.0" y="64.0" /><text x="17.0" y="74.2">Google</text></g><g class="legend reactive activate-serie" id="activate-serie-16"><rect class="color-16 reactive" height="12" width="12" x="152.0" y="64.0" /><text x="169.0" y="74.2">Google Drive</text></g><g class="legend reactive activate-serie" id="activate-serie-17"><rect class="color-17 reactive" height="12" width="12" x="304.0" y="64.0" /><text x="321.0" y="74.2">YouTube</text></g><g class="legend reactive activate-serie" id="activate-serie-18"><rect class="color-18 reactive" height="12" width="12" x="456.0" y="64.0" /><text x="473.0" y="74.2">Google Play Mov…</text><title>Google Play Movies &amp; TV</title></g><g class="legend reactive activate-serie" id="activate-serie-19"><rect class="color-19 reactive" height="12" width="12" x="608.0" y="64.0" /><text x="625.0" y="74.2">Google News</text></g></g></g></svg>